<?xml version="1.0" standalone="no"?>
<!DOCTYPE svg PUBLIC "-//W3C//DTD SVG 20010904//EN"
 "http://www.w3.org/TR/2001/REC-SVG-20010904/DTD/svg10.dtd">
<svg version="1.0" xmlns="http://www.w3.org/2000/svg"
 width="695.000000pt" height="236.000000pt" viewBox="0 0 695.000000 236.000000"
 preserveAspectRatio="xMidYMid meet">
<metadata>
Created by potrace 1.16, written by Peter Selinger 2001-2019
</metadata>
<g transform="translate(0.000000,236.000000) scale(0.100000,-0.100000)"
fill="#000000" stroke="none">
<path d="M2285 1982 c-54 -25 -111 -91 -148 -171 -25 -53 -32 -82 -35 -153 -5
-96 7 -130 48 -141 21 -5 22 -4 16 47 -9 69 9 176 40 243 33 69 77 103 133
103 55 0 98 -41 132 -125 22 -56 24 -72 24 -270 0 -163 -4 -232 -19 -310 -59
-319 -167 -541 -271 -561 -20 -3 -39 -4 -42 0 -14 13 91 770 148 1071 19 102
19 110 4 121 -58 43 -79 -33 -154 -559 -27 -188 -57 -406 -66 -485 -15 -136
-15 -145 1 -170 27 -41 45 -51 95 -52 145 -1 292 228 359 559 73 363 30 755
-92 842 -43 31 -120 36 -173 11z"/>
<path d="M3706 1978 c-58 -89 -171 -534 -216 -848 -25 -172 -48 -248 -100
-329 -73 -113 -140 -92 -140 43 0 50 2 54 30 66 98 40 182 224 167 366 -14
138 -109 122 -183 -31 -33 -71 -84 -244 -84 -289 0 -12 -7 -31 -15 -42 -15
-19 -15 -19 -30 0 -18 24 -21 167 -5 261 18 103 -7 172 -47 133 -10 -11 -18
-50 -24 -124 -9 -116 -55 -315 -90 -393 -20 -45 -21 -45 -31 -21 -6 15 -7 91
-3 195 6 144 4 173 -9 190 -12 16 -18 18 -33 9 -14 -9 -19 -29 -24 -95 -20
-273 -229 -478 -229 -225 0 50 2 54 30 66 38 16 93 76 124 137 49 97 60 260
20 304 -89 99 -244 -203 -244 -475 0 -120 12 -170 50 -208 63 -62 143 -14 212
126 l38 80 1 -75 c0 -40 5 -90 12 -109 10 -30 17 -35 42 -35 26 0 33 7 57 55
14 30 36 93 49 140 27 102 34 113 42 63 12 -70 60 -106 95 -71 9 9 12 3 12
-27 0 -97 49 -175 109 -175 43 0 105 58 146 139 l34 66 1 -50 c1 -132 88 -170
149 -64 l28 50 7 -42 c10 -64 22 -79 60 -79 41 0 77 38 112 118 22 48 26 52
58 52 19 0 42 7 50 16 15 14 16 14 16 -3 0 -32 -40 -341 -60 -467 -20 -126
-16 -156 20 -156 33 0 42 45 90 465 25 217 37 288 61 360 50 149 104 206 130
138 18 -47 6 -228 -21 -305 -27 -80 -80 -148 -116 -148 -18 0 -24 -5 -24 -23
0 -33 18 -47 61 -47 31 0 43 7 73 41 86 101 138 354 105 509 -13 60 -51 110
-84 110 -30 0 -81 -43 -105 -89 l-19 -36 -1 60 c0 70 -17 109 -47 113 -29 4
-29 0 -43 -223 -11 -186 -18 -211 -63 -239 -28 -18 -29 -1 -6 85 30 118 36
272 12 319 -22 43 -68 53 -97 21 -23 -25 -45 -87 -46 -127 0 -25 -4 -30 -22
-30 -14 1 -28 -10 -41 -33 -23 -38 -57 -169 -57 -219 0 -44 -54 -162 -75 -162
-27 0 -37 49 -33 160 4 96 8 112 42 183 67 141 138 383 171 586 17 101 17 252
0 294 -10 24 -32 21 -49 -5z m-928 -761 c-4 -40 -15 -83 -33 -120 -31 -62 -79
-125 -90 -116 -15 15 51 221 86 271 32 45 42 36 37 -35z m610 0 c-4 -40 -15
-83 -33 -120 -31 -62 -79 -125 -90 -116 -15 15 51 221 86 271 32 45 42 36 37
-35z m407 -289 c15 -46 15 -50 -6 -98 -70 -164 -94 -16 -37 240 l12 55 7 -75
c4 -41 15 -97 24 -122z"/>
<path d="M5372 1985 c-56 -24 -122 -77 -122 -97 0 -17 15 -54 27 -67 2 -3 23
15 48 39 25 24 47 41 50 39 2 -3 -9 -77 -26 -165 -39 -211 -99 -576 -140 -855
l-32 -226 19 -38 c19 -38 48 -65 59 -54 3 3 24 154 47 336 l43 331 42 6 c129
17 240 133 272 284 14 66 14 192 0 252 -12 54 -53 136 -82 169 -50 54 -140 74
-205 46z m156 -98 c45 -47 62 -104 62 -212 0 -178 -66 -308 -183 -361 -20 -9
-40 -14 -44 -10 -11 11 70 552 92 613 6 18 40 4 73 -30z"/>
<path d="M6606 1768 c-26 -42 -80 -233 -116 -409 -9 -49 -14 -56 -30 -52 -17
5 -20 0 -20 -30 0 -20 6 -40 13 -44 12 -7 11 -33 -5 -158 -21 -165 -37 -233
-68 -283 -43 -70 -49 -10 -20 198 18 127 -6 234 -55 246 -39 10 -74 -21 -117
-104 l-37 -72 -3 73 c-3 64 -5 72 -24 75 -35 5 -47 -23 -56 -131 -12 -148 -61
-295 -104 -311 -58 -22 -58 123 0 341 39 145 45 210 21 220 -41 15 -83 -87
-116 -275 -17 -104 -41 -152 -76 -152 -17 0 -17 1 8 90 11 41 22 122 25 180 5
89 3 110 -13 140 -22 43 -68 53 -97 21 -23 -25 -45 -87 -46 -127 0 -25 -4 -30
-22 -30 -52 2 -98 -154 -97 -329 0 -60 5 -126 12 -145 10 -30 17 -35 48 -38
31 -3 41 2 64 30 16 18 39 57 51 86 22 48 26 52 58 52 19 0 42 7 50 16 15 14
16 10 16 -43 0 -35 7 -72 18 -93 14 -29 23 -36 53 -38 31 -3 41 2 67 32 l30
35 17 -25 c30 -47 45 -27 96 131 56 171 98 255 130 255 21 0 21 -2 14 -182 -7
-178 -7 -184 15 -210 37 -48 82 -31 123 47 l16 30 1 -28 c0 -33 26 -98 43
-109 7 -4 26 -8 43 -8 39 0 73 35 114 118 40 82 87 259 73 273 -8 8 -16 -6
-27 -48 -52 -184 -130 -290 -166 -224 -15 28 -12 200 5 316 23 156 13 142 105
150 l80 7 0 37 0 37 -70 -4 c-49 -3 -70 -1 -70 8 0 6 20 87 45 179 53 197 62
250 46 280 -15 27 -27 27 -45 -1z m-911 -840 c15 -46 15 -50 -6 -98 -70 -164
-94 -16 -37 240 l12 55 7 -75 c4 -41 15 -97 24 -122z"/>
<path d="M1400 1619 c-97 -38 -358 -123 -432 -140 -63 -15 -72 -29 -33 -55 30
-20 93 -15 225 16 45 11 84 19 86 17 8 -7 -228 -502 -259 -546 -18 -25 -45
-52 -59 -59 -18 -8 -82 -13 -202 -13 -100 0 -174 -5 -171 -10 3 -4 36 -19 73
-31 65 -22 76 -22 447 -19 209 2 382 5 385 8 9 8 -45 43 -85 54 -22 6 -86 14
-143 18 l-102 6 46 55 c30 36 85 136 160 290 64 129 131 266 150 303 36 72 42
105 22 125 -16 16 -22 15 -108 -19z"/>
<path d="M6022 1643 c-21 -8 -42 -59 -42 -102 0 -57 8 -71 41 -71 37 0 59 40
59 108 0 61 -18 81 -58 65z"/>
<path d="M4651 1419 c-6 -18 -11 -60 -11 -95 0 -82 -33 -256 -71 -371 -79
-239 -209 -307 -209 -109 0 50 2 54 30 66 38 16 93 76 124 137 49 97 60 260
20 304 -89 99 -244 -203 -244 -475 0 -120 12 -170 50 -208 105 -105 248 103
310 452 17 96 19 99 35 70 20 -35 18 -112 -5 -225 -24 -117 -26 -224 -5 -265
12 -23 22 -30 46 -30 44 0 67 15 99 66 l28 45 16 -54 c30 -103 103 -138 163
-78 16 16 35 48 42 72 7 23 23 51 36 61 30 23 61 90 76 166 19 93 -1 99 -29 9
-13 -39 -31 -83 -42 -97 l-20 -25 0 62 c0 34 -7 115 -16 180 -9 65 -19 168
-23 228 -6 102 -8 110 -27 113 -25 4 -34 -19 -34 -88 0 -76 -61 -250 -112
-322 -10 -13 -22 -49 -28 -79 -17 -89 -83 -180 -111 -152 -9 9 -6 42 15 141
38 191 34 238 -31 344 -30 48 -34 63 -29 93 15 78 -20 129 -43 64z m-153 -202
c-4 -40 -15 -83 -33 -120 -31 -62 -79 -125 -90 -116 -15 15 51 221 86 271 32
45 42 36 37 -35z m512 -270 c2 -48 -1 -91 -4 -95 -9 -9 -40 32 -63 82 -17 37
-17 39 11 120 15 44 31 88 34 96 7 20 20 -92 22 -203z"/>
</g>
</svg>
