<?xml version="1.0" standalone="no"?>
<!DOCTYPE svg PUBLIC "-//W3C//DTD SVG 20010904//EN"
 "http://www.w3.org/TR/2001/REC-SVG-20010904/DTD/svg10.dtd">
<svg version="1.0" xmlns="http://www.w3.org/2000/svg"
 width="1986.000000pt" height="688.000000pt" viewBox="0 0 1986.000000 688.000000"
 preserveAspectRatio="xMidYMid meet">
<metadata>
Created by potrace 1.16, written by Peter Selinger 2001-2019
</metadata>
<g transform="translate(0.000000,688.000000) scale(0.100000,-0.100000)"
fill="#000000" stroke="none">
<path d="M3915 4956 c-11 -7 -83 -47 -160 -88 -281 -150 -738 -357 -951 -431
-98 -35 -99 -35 -98 -66 5 -101 111 -135 289 -92 84 21 303 94 407 136 34 14
63 23 65 22 2 -2 -6 -30 -17 -63 -12 -32 -75 -238 -141 -458 -224 -741 -355
-1091 -501 -1333 -33 -55 -57 -84 -71 -88 -71 -14 -367 -29 -587 -28 l-255 1
30 -24 c47 -37 153 -90 235 -117 162 -53 239 -55 915 -26 241 10 527 7 738 -8
l89 -6 -20 40 c-40 78 -134 138 -270 175 -61 16 -121 21 -279 25 -112 3 -203
7 -203 9 0 2 27 44 60 95 130 198 266 472 398 805 101 253 169 475 288 934 20
80 60 201 87 270 69 171 75 247 23 303 -28 30 -43 33 -71 13z"/>
<path d="M9659 4872 c-178 -90 -608 -1245 -725 -1947 -13 -81 -26 -118 -67
-199 -90 -177 -227 -335 -340 -392 -102 -52 -208 -41 -260 28 -33 43 -59 151
-55 230 l3 60 71 18 c203 52 413 230 499 423 83 189 66 424 -35 482 -57 33
-151 27 -236 -15 -196 -96 -427 -472 -484 -785 -16 -88 -21 -97 -63 -120 -47
-25 -78 -15 -107 37 -24 41 -25 50 -24 218 0 167 2 180 32 280 45 147 42 222
-10 278 -15 15 -33 22 -60 22 -79 0 -112 -73 -129 -285 -11 -143 -23 -189
-106 -400 -96 -243 -190 -408 -254 -441 -29 -15 -33 -15 -48 1 -14 14 -16 59
-16 409 0 303 -3 396 -13 408 -17 22 -63 29 -105 17 -47 -13 -54 -37 -63 -224
l-6 -150 -51 -99 c-90 -177 -227 -335 -340 -392 -102 -52 -208 -41 -260 28
-33 43 -59 151 -55 230 l3 60 71 18 c203 52 413 230 499 423 60 136 70 321 23
415 -32 64 -74 87 -159 86 -172 -1 -346 -165 -497 -469 -210 -423 -182 -847
62 -961 61 -28 173 -32 249 -9 148 45 302 188 414 384 l43 76 0 -92 c0 -154
33 -283 84 -335 76 -75 186 -23 294 142 52 78 146 269 198 402 l38 97 18 -71
c54 -214 153 -294 275 -223 l43 26 0 -28 c0 -52 30 -167 55 -218 60 -117 150
-175 275 -175 41 0 97 7 123 15 141 43 290 177 401 361 l36 59 0 -40 c0 -92
30 -217 63 -266 37 -56 81 -79 149 -79 113 0 217 79 316 240 l52 84 0 -54 c0
-111 42 -214 104 -254 35 -24 49 -27 101 -24 37 2 79 13 110 28 67 33 179 147
240 243 41 66 52 77 70 72 42 -14 144 -17 179 -5 20 6 60 34 90 60 44 41 53
46 50 27 -2 -12 -13 -89 -25 -172 -24 -176 -101 -568 -164 -838 -25 -105 -45
-203 -45 -218 0 -34 60 -89 96 -89 84 0 133 164 243 830 108 648 118 686 213
872 123 242 242 347 338 300 128 -62 122 -411 -11 -660 -102 -192 -221 -290
-380 -312 -86 -12 -89 -14 -89 -50 0 -58 87 -96 202 -88 92 7 182 51 263 129
177 170 289 429 311 715 16 221 -63 417 -191 475 -148 68 -307 -33 -445 -281
-29 -52 -40 -66 -36 -45 15 87 28 245 23 296 -9 103 -66 169 -144 169 -56 0
-59 -12 -87 -320 -47 -506 -45 -497 -81 -549 -57 -84 -170 -142 -232 -120
l-31 10 33 78 c47 112 91 253 110 356 19 99 16 271 -4 338 -14 45 -65 105
-100 119 -38 14 -123 12 -162 -5 -77 -33 -139 -135 -166 -277 -14 -71 -18 -78
-34 -70 -10 6 -36 10 -59 10 -34 0 -48 -7 -86 -42 -57 -53 -123 -185 -165
-333 -49 -173 -166 -389 -240 -444 -17 -12 -45 -25 -64 -28 -44 -7 -79 28 -96
100 -15 63 -15 239 1 373 11 94 14 102 54 154 243 312 488 868 592 1340 44
204 38 393 -17 502 -26 52 -48 61 -90 40z m11 -409 c-35 -239 -179 -666 -335
-988 -67 -140 -145 -280 -145 -262 0 5 14 63 31 130 83 333 238 784 354 1032
46 99 94 180 102 172 2 -3 -1 -41 -7 -84z m-2838 -1059 c19 -41 -5 -155 -52
-249 -76 -151 -255 -324 -362 -350 -35 -9 -35 -5 2 109 66 196 194 412 288
483 56 42 107 45 124 7z m1860 0 c19 -41 -5 -154 -52 -249 -73 -149 -254 -324
-362 -350 -35 -9 -35 -5 2 109 66 196 194 412 288 483 56 42 107 45 124 7z
m1484 -5 c29 -32 26 -242 -5 -359 -28 -107 -102 -294 -111 -283 -4 4 -15 31
-24 58 -44 139 -47 372 -6 478 27 70 73 127 104 127 13 0 31 -9 42 -21z m-301
-508 c20 -87 55 -176 92 -232 l25 -38 -36 -60 c-45 -74 -119 -157 -158 -177
-96 -50 -138 69 -103 291 20 133 74 316 118 405 l32 65 7 -89 c3 -48 14 -123
23 -165z"/>
<path d="M14839 4879 c-125 -14 -263 -62 -419 -146 -47 -25 -86 -46 -87 -47
-1 -1 2 -18 7 -37 12 -42 66 -109 87 -109 9 0 65 31 123 70 109 71 200 117
200 100 0 -4 -27 -98 -59 -207 -144 -484 -252 -905 -421 -1654 -124 -547 -143
-663 -121 -732 21 -63 121 -137 187 -137 7 0 32 105 63 268 29 147 87 449 130
672 l78 405 110 11 c134 14 152 18 273 56 103 33 242 97 313 146 119 82 243
264 283 417 24 93 30 284 10 378 -73 352 -398 587 -757 546z m216 -144 c121
-32 231 -119 285 -225 82 -162 76 -417 -15 -605 -73 -153 -201 -282 -350 -355
-84 -41 -216 -83 -298 -94 -43 -5 -48 -4 -43 12 3 9 28 127 56 261 64 304 152
657 215 864 54 177 45 169 150 142z"/>
<path d="M18513 4425 c-76 -53 -227 -391 -337 -755 -26 -85 -51 -166 -55 -180
-8 -24 -11 -25 -70 -22 l-61 4 0 -56 c0 -51 2 -57 30 -71 16 -8 36 -15 46 -15
10 0 14 -5 11 -15 -12 -29 -77 -334 -97 -448 -17 -101 -28 -134 -74 -227 -101
-202 -177 -284 -243 -259 -50 18 -48 103 8 330 39 158 43 185 43 299 0 107 -3
134 -23 184 -59 149 -169 192 -303 119 -85 -46 -202 -187 -303 -364 -20 -35
-34 -55 -31 -44 7 27 24 157 30 230 7 76 -9 125 -47 143 -43 21 -94 7 -139
-38 -36 -36 -38 -41 -38 -101 -1 -113 -43 -325 -84 -419 -94 -217 -208 -349
-304 -350 -41 0 -80 27 -93 67 -19 55 -15 203 9 303 23 95 84 270 160 460 27
69 55 144 61 168 23 84 -11 152 -76 152 -86 0 -193 -189 -278 -492 -19 -68
-39 -148 -45 -178 -19 -101 -134 -203 -227 -203 -64 0 -68 9 -35 89 136 330
166 595 82 741 -35 61 -79 85 -156 84 -65 0 -123 -28 -158 -74 -38 -49 -73
-134 -87 -207 -17 -95 -16 -92 -38 -80 -31 16 -83 12 -118 -10 -127 -77 -242
-425 -230 -700 9 -213 70 -310 196 -310 111 0 248 103 351 264 49 77 58 85 80
80 14 -3 53 -8 86 -11 68 -6 120 12 182 63 l32 27 0 -91 c0 -109 25 -200 71
-256 41 -48 82 -66 157 -66 84 0 164 42 242 127 49 54 60 62 60 43 0 -34 38
-80 84 -101 74 -33 75 -32 135 109 64 148 165 355 227 462 94 162 187 250 266
250 86 0 99 -108 47 -377 -39 -203 -38 -314 4 -385 37 -64 85 -91 161 -92 101
-1 182 59 270 203 l45 73 5 -33 c3 -19 8 -60 11 -91 8 -72 56 -170 98 -202 47
-35 102 -49 167 -43 173 15 354 212 489 532 63 148 85 223 71 240 -23 28 -35
15 -64 -62 -64 -172 -175 -354 -266 -436 -67 -60 -114 -82 -178 -82 -46 0 -57
4 -78 28 -13 15 -29 46 -36 70 -18 60 -15 281 5 412 17 110 91 430 105 452 4
7 66 16 162 23 85 6 196 17 245 23 l90 12 3 64 3 64 -43 -7 c-59 -9 -408 -20
-408 -14 0 10 95 257 185 478 98 243 125 332 125 406 0 87 -57 131 -117 89z
m-2566 -1037 c22 -43 21 -191 -2 -301 -18 -89 -66 -230 -100 -297 l-23 -45
-21 70 c-43 145 -53 300 -26 413 39 163 126 245 172 160z m-317 -448 c15 -91
55 -209 90 -264 17 -26 30 -51 30 -57 0 -31 -130 -201 -175 -229 -42 -26 -67
-25 -92 3 -30 33 -34 53 -34 154 1 149 64 412 129 538 l26 50 8 -65 c4 -36 12
-94 18 -130z"/>
<path d="M16685 4146 c-91 -39 -150 -154 -126 -244 37 -135 212 -121 280 22
20 41 24 69 22 139 -1 57 -45 97 -103 97 -24 -1 -57 -7 -73 -14z"/>
<path d="M12537 3740 c-41 -48 -68 -133 -68 -216 0 -40 4 -81 10 -92 20 -37
-130 -534 -205 -683 -135 -269 -310 -435 -469 -446 -115 -8 -174 57 -196 213
-16 113 -8 133 61 151 200 50 404 218 495 407 62 129 83 277 54 392 -33 129
-181 169 -329 88 -150 -82 -343 -365 -428 -629 -77 -237 -75 -480 5 -628 62
-112 158 -162 299 -155 71 4 94 10 161 42 103 51 254 201 328 326 82 140 187
404 266 668 l42 140 29 -21 c43 -32 88 -129 88 -191 0 -55 -27 -172 -83 -364
-48 -162 -65 -282 -48 -355 56 -251 316 -246 521 10 35 43 67 80 71 81 5 2 9
-7 9 -19 0 -46 45 -165 85 -224 141 -210 470 -143 562 115 15 43 22 50 70 70
79 33 155 114 208 224 56 115 92 241 75 262 -7 8 -16 14 -20 14 -4 0 -22 -35
-39 -77 -61 -145 -154 -272 -230 -313 l-23 -12 7 74 c12 127 -7 253 -100 678
-30 132 -36 183 -35 255 1 50 3 105 3 122 1 59 -52 90 -105 62 -35 -19 -59
-93 -68 -208 -9 -122 -33 -192 -131 -381 -71 -136 -122 -210 -147 -210 -30 0
-93 -94 -114 -168 -21 -77 -83 -174 -167 -258 -115 -117 -221 -125 -221 -18 0
41 15 100 74 302 89 306 63 444 -119 632 -52 54 -95 106 -95 117 1 10 7 44 14
75 14 58 9 116 -15 159 -15 29 -54 23 -82 -11z m-459 -322 c27 -27 7 -157 -40
-255 -60 -128 -212 -288 -323 -339 -66 -31 -77 -31 -69 4 33 135 140 361 226
476 75 100 168 152 206 114z m1516 -353 c34 -209 46 -318 46 -438 0 -97 0 -98
-22 -91 -71 22 -190 139 -237 231 l-28 56 42 73 c23 41 68 134 101 208 32 75
62 132 65 128 3 -4 18 -79 33 -167z m-259 -421 c42 -71 152 -177 218 -208 31
-16 57 -30 57 -33 0 -16 -35 -65 -65 -92 -45 -39 -105 -43 -156 -8 -60 40
-109 171 -109 288 0 44 13 99 24 99 2 0 16 -21 31 -46z"/>
</g>
</svg>
